# AST/ASF file generated using VICON BodyLanguage
# -----------------------------------------------
:version 1.10
:name VICON
:units
  mass 1.0
  length 0.45
  angle deg
:documentation
   .ast/.asf automatically generated from VICON data using
   VICON BodyBuilder and BodyLanguage model FoxedUp or BRILLIANT.MOD
:root
   order TX TY TZ RX RY RZ
   axis XYZ
   position 0 0 0  
   orientation 0 0 0 
:bonedata
  begin
     id 1 
     name lhipjoint
     direction 0.537252 -0.787203 0.302774 
     length 2.29576 
     axis 0 0 0  XYZ
  end
  begin
     id 2 
     name lfemur
     direction 0.34202 -0.939693 0  
     length 7.31114  
     axis 0 0 20  XYZ
    dof rx ry rz
    limits (-160.0 20.0)
           (-70.0 70.0)
           (-60.0 70.0)
  end
  begin
     id 3 
     name ltibia
     direction 0.34202 -0.939693 0   
     length 8.36008   
     axis 0 0 20   XYZ
    dof rx
    limits (-10.0 170.0)
  end
  begin
     id 4 
     name lfoot
     direction 0.0969116 -0.266263 0.959016   
     length 2.16704   
     axis -90 7.62852e-016 20   XYZ
    dof rx rz
    limits (-45.0 90.0)
           (-70.0 20.0)
  end
  begin
     id 5 
     name ltoes
     direction 1.53563e-011 -4.21779e-011 1   
     length 1.08338   
     axis -90 7.62852e-016 20   XYZ
    dof rx
    limits (-90.0 20.0)
  end
  begin
     id 6 
     name rhipjoint
     direction -0.588228 -0.754791 0.290308   
     length 2.39434  
     axis 0 0 0  XYZ 
  end
  begin
     id 7 
     name rfemur
     direction -0.34202 -0.939693 0   
     length 7.45207   
     axis 0 0 -20   XYZ
    dof rx ry rz
    limits (-160.0 20.0)
           (-70.0 70.0)
           (-70.0 60.0)
  end
  begin
     id 8 
     name rtibia
     direction -0.34202 -0.939693 0   
     length 8.03565   
     axis 0 0 -20   XYZ
    dof rx
    limits (-10.0 170.0)
 end
 begin
     id 9 
     name rfoot
     direction -0.107009 -0.294004 0.949795   
     length 2.11509  
     axis -90 -7.62852e-016 -20   XYZ
    dof rx rz
    limits (-45.0 90.0)
           (-20.0 70.0)
  end
  begin
     id 10 
     name rtoes
     direction -1.53533e-011 -4.22004e-011 1   
     length 1.05493   
     axis -90 -7.62852e-016 -20   XYZ
    dof rx
    limits (-90.0 20.0)
  end
  begin
     id 11 
     name lowerback
     direction -0.0115208 0.997969 -0.0626515   
     length 2.03153   
     axis 0 0 0   XYZ
    dof rx ry rz
    limits (-20.0 45.0)
           (-30.0 30.0)
           (-30.0 30.0)
  end
  begin
     id 12 
     name upperback
     direction -0.00423475 0.999974 -0.00583614   
     length 2.03619   
     axis 0 0 0   XYZ
    dof rx ry rz
    limits (-20.0 45.0)
           (-30.0 30.0)
           (-30.0 30.0)
  end
  begin
     id 13 
     name thorax
     direction 0.00289429 0.999728 0.0231573   
     length 2.03921   
     axis 0 0 0   XYZ
    dof rx ry rz
    limits (-20.0 45.0)
           (-30.0 30.0)
           (-30.0 30.0)
  end
  begin
     id 14 
     name lowerneck
     direction 0.0188995 0.987777 0.154721   
     length 1.78836   
     axis 0 0 0   XYZ
    dof rx ry rz
    limits (-20.0 45.0)
           (-30.0 30.0)
           (-30.0 30.0)
  end
  begin
     id 15 
     name upperneck
     direction -0.00612612 0.992995 -0.118   
     length 1.81789   
     axis 0 0 0   XYZ
    dof rx ry rz
    limits (-20.0 45.0)
           (-30.0 30.0)
           (-30.0 30.0)
  end
  begin
     id 16
     name head
     direction -0.00420226 0.998397 -0.0564482  
     length 1.82234  
     axis 0 0 0   XYZ
    dof rx ry rz
    limits (-20.0 45.0)
           (-30.0 30.0)
           (-30.0 30.0)
  end
  begin
     id 17 
     name lclavicle
     direction 0.916488 0.396539 0.0529676  
     length 3.51732  
     axis 0 0 0   XYZ
    dof ry rz
    limits (-20.0 10.0)
           (0.0 20.0)
  end
  begin
     id 18 
     name lhumerus
     direction 1 -4.4896e-011 8.36962e-028   
     length 5.45077   
     axis 180 -30 -90   XYZ
    dof rx ry rz
    limits (-60.0 90.0)
           (-90.0 90.0)
           (-90.0 90.0)
  end
  begin
     id 19
     name lradius
     direction 1 -4.48962e-011 3.01407e-027   
     length 3.05488   
     axis 180 -30 -90   XYZ
    dof rx
    limits (-10.0 170.0)
  end
  begin
     id 20
     name lwrist
     direction 1 -4.49002e-011 4.72961e-027   
     length 1.52744   
     axis -2.72261e-015 90 90   XYZ
    dof ry
    limits (-180.0 0.0)
 end
  begin
     id 21 
     name lhand
     direction 1 -4.4899e-011 9.45681e-027   
     length 0.638818   
     axis -6.0311e-015 90 90   XYZ
    dof rx rz
    limits (-90.0 90.0)
           (-45.0 45.0)
  end
  begin
     id 22 
     name lfingers
     direction 1 -4.48871e-011 1.88632e-026   
     length 0.515032   
     axis -1.20625e-014 90 90   XYZ
    dof rx
    limits (0.0 90.0)
  end
  begin
     id 23
     name lthumb
     direction 0.707107 -6.34964e-011 0.707107   
     length 0.739485   
     axis -90 45 6.32835e-014   XYZ
    dof rx rz
    limits (-45.0 45.0)
           (-45.0 45.0)
  end
  begin
     id 24 
     name rclavicle
     direction -0.949427 0.303202 0.0815894   
     length 3.76167  
     axis 0 0 0   XYZ 
    dof ry rz
    limits (-10.0 20.0)
           (-20.0 0.0)
  end
  begin
     id 25 
     name rhumerus
     direction -1 -4.48971e-011 -6.43969e-018  
     length 4.88702   
     axis 180 30 90   XYZ
    dof rx ry rz
    limits (-90.0 60.0)
           (-90.0 90.0)
           (-90.0 90.0)
  end
  begin
     id 26 
     name rradius
     direction -1 -4.48987e-011 5.46662e-027   
     length 3.22603   
     axis 180 30 90   XYZ
    dof rx
    limits (-10.0 170.0)
  end
  begin
     id 27 
     name rwrist
     direction -1 -4.48956e-011 4.72476e-027   
     length 1.61302   
     axis -2.72261e-015 -90 -90   XYZ
    dof ry
    limits (-180.0 0.0)
  end
  begin
     id 28
     name rhand
     direction -1 -4.4889e-011 9.43571e-027   
     length 0.716293   
     axis -6.0311e-015 -90 -90   XYZ
    dof rx rz
    limits (-90.0 90.0)
           (-45.0 45.0)
  end
  begin
     id 29
     name rfingers
     direction -1 -4.48887e-011 1.88701e-026   
     length 0.577494   
     axis -1.20625e-014 -90 -90   XYZ
    dof rx
    limits (0.0 90.0)
  end
  begin
     id 30
     name rthumb
     direction -0.707107 -6.34825e-011 0.707107   
     length 0.829169   
     axis -90 -45 -6.32835e-014   XYZ
    dof rx rz
    limits (-45.0 45.0)
           (-45.0 45.0)
  end
:hierarchy
  begin
    root lhipjoint rhipjoint lowerback
    lhipjoint lfemur
    lfemur ltibia
    ltibia lfoot
    lfoot ltoes
    rhipjoint rfemur
    rfemur rtibia
    rtibia rfoot
    rfoot rtoes
    lowerback upperback
    upperback thorax
    thorax lowerneck lclavicle rclavicle
    lowerneck upperneck
    upperneck head
    lclavicle lhumerus
    lhumerus lradius
    lradius lwrist
    lwrist lhand lthumb
    lhand lfingers
    rclavicle rhumerus
    rhumerus rradius
    rradius rwrist
    rwrist rhand rthumb
    rhand rfingers
  end

#!OML:ASF F:\VICON\USERDATA\INSTALL\rory3\rory3.ASF
:FULLY-SPECIFIED
:DEGREES
913
root 1.20322 18.5426 0.168591 45.0965 86.7451 32.1868
lowerback -9.10165 3.28104 -1.35425
upperback -3.72158 4.77764 -5.02978
thorax 1.55108 2.45718 -3.95282
lowerneck -6.84417 19.5005 15.8406
upperneck 18.2735 29.9068 -16.2829
head 12.0191 13.8185 -3.32681
rclavicle -1.54058e-015 -4.45278e-014
rhumerus -3.35975 -45.6325 3.78467
rradius 53.3163
rwrist -43.0383
rhand -35.8137 10.1046
rfingers 7.12502
rthumb -8.92999 -19.6864
lclavicle -1.54058e-015 -4.45278e-014
lhumerus -99.243 -52.9826 123.103
lradius 90.2363
lwrist -6.09464
lhand -31.3742 6.28854
lfingers 7.12502
lthumb -4.64444 36.2176
rfemur -7.46861 -3.86979 14.2509
rtibia -2.06736e-014
rfoot -4.6802 5.86333
rtoes -11.8294
lfemur -15.3734 8.54 -20.4017
ltibia 16.2925
lfoot -13.5862 -2.5561
ltoes -27.3082
914
root 1.20248 18.5409 0.171098 45.0409 86.7517 32.0996
lowerback -9.10467 3.29582 -1.3214
upperback -3.75082 4.79637 -5.06883
thorax 1.5295 2.46708 -4.01085
lowerneck -6.9207 19.5155 15.7888
upperneck 18.286 29.8696 -16.1277
head 11.9915 13.804 -3.27374
rclavicle 4.37823e-014 3.18055e-015
rhumerus -3.13097 -45.9261 3.98207
rradius 53.3624
rwrist -43.3621
rhand -35.8295 10.3605
rfingers 7.12502
rthumb -8.94529 -19.4299
lclavicle 4.37823e-014 3.18055e-015
lhumerus -99.1851 -52.9995 123.084
lradius 90.1746
lwrist -6.13895
lhand -31.3284 6.32261
lfingers 7.12502
lthumb -4.60026 36.2527
rfemur -7.52043 -3.87253 14.2667
rtibia 8.74653e-015
rfoot -4.63333 5.86517
rtoes -11.207
lfemur -15.4134 8.49661 -20.3785
ltibia 16.271
lfoot -13.54 -2.56685
ltoes -26.8124
915
root 1.20205 18.5403 0.1744 44.2551 86.7678 31.292
lowerback -9.10563 3.3284 -1.25648
upperback -3.77614 4.83591 -5.11051
thorax 1.51502 2.48708 -4.08728
lowerneck -6.95448 19.5095 15.7982
upperneck 18.2733 29.8155 -16.0395
head 11.9671 13.7842 -3.25707
rclavicle -1.25731e-014 3.97569e-014
rhumerus -3.0129 -46.1135 4.17009
rradius 53.4622
rwrist -43.4214
rhand -36.022 10.5485
rfingers 7.12502
rthumb -9.13104 -19.2338
lclavicle -1.25731e-014 3.97569e-014
lhumerus -99.1686 -53.0422 123.007
lradius 90.1741
lwrist -6.18536
lhand -31.1392 6.27404
lfingers 7.12502
lthumb -4.41752 36.208
rfemur -7.53852 -3.85293 14.3181
rtibia 1.51076e-014
rfoot -4.60392 5.92036
rtoes -10.7422
lfemur -15.4268 8.55234 -20.3246
ltibia 16.228
lfoot -13.431 -2.5995
ltoes -26.8122
916
root 1.19977 18.5408 0.178655 44.3685 86.7512 31.3958
lowerback -9.07602 3.34258 -1.30336
upperback -3.7826 4.85916 -5.14153
thorax 1.49239 2.49939 -4.09295
lowerneck -6.93009 19.4972 15.8108
upperneck 18.1255 29.7561 -16.0586
head 11.9014 13.7634 -3.28456
rclavicle 2.01269e-014 1.59028e-015
rhumerus -2.83609 -46.5142 4.22434
rradius 53.648
rwrist -43.1185
rhand -36.1975 10.5069
rfingers 7.12502
rthumb -9.30039 -19.268
lclavicle 2.01269e-014 1.59028e-015
lhumerus -99.1386 -53.0928 122.946
lradius 90.2209
lwrist -6.23957
lhand -31.0677 6.37238
lfingers 7.12502
lthumb -4.34856 36.3077
rfemur -7.54572 -3.8431 14.3187
rtibia 1.51076e-014
rfoot -4.66994 5.9214
rtoes -11.0694
lfemur -15.4287 8.62496 -20.3374
ltibia 16.1975
lfoot -13.443 -2.63916
ltoes -27.1505
917
root 1.19655 18.5422 0.18244 45.7363 86.7192 32.7396
lowerback -9.04795 3.3407 -1.40021
upperback -3.7801 4.86748 -5.20034
thorax 1.47729 2.50499 -4.10091
lowerneck -6.95864 19.5065 15.7849
upperneck 17.96 29.7074 -16.0439
head 11.8276 13.7439 -3.28967
rclavicle 6.80837e-015 1.27222e-014
rhumerus -2.69051 -46.9482 4.26473
rradius 53.8803
rwrist -42.7575
rhand -36.1077 10.4364
rfingers 7.12502
rthumb -9.21374 -19.3423
lclavicle 6.80837e-015 1.27222e-014
lhumerus -99.1257 -53.1814 122.904
lradius 90.302
lwrist -6.2773
lhand -31.0737 6.5031
lfingers 7.12502
lthumb -4.35434 36.4383
rfemur -7.58519 -3.87586 14.2481
rtibia 7.15625e-015
rfoot -4.65246 5.9179
rtoes -11.3094
lfemur -15.452 8.52243 -20.4071
ltibia 16.1844
lfoot -13.4348 -2.56837
ltoes -27.135
